<svg width="30" height="22" viewBox="0 0 30 22" fill="none" xmlns="http://www.w3.org/2000/svg">
<path d="M28.6783 10.6298L27.2649 10.1976C27.0688 10.1377 26.8618 10.1941 26.7294 10.3433C26.386 10.7309 26.0092 11.0994 25.6093 11.4387C22.6452 13.9537 18.9246 14.8125 14.85 13.9233C10.7957 13.0386 8.93217 10.692 6.35305 7.44413C6.16856 7.21181 5.98098 6.97557 5.78914 6.73572C5.76727 6.70834 5.74164 6.67238 5.71437 6.63438C5.64275 6.53432 5.55363 6.40981 5.4281 6.287C5.25764 6.12008 5.07192 5.96463 4.87608 5.82495C4.47155 5.53636 4.20177 5.08204 4.13606 4.57837L3.70242 1.25664C3.6836 1.11264 3.60979 0.979581 3.49713 0.886579C3.38455 0.793518 3.24231 0.748175 3.10175 0.760606L0.961705 0.948831C0.669216 0.974461 0.463684 1.23839 0.502723 1.5381L0.918668 4.72438C0.964197 5.07323 0.851422 5.42801 0.609216 5.69774C0.23932 6.10954 0.0508662 6.61775 0.0642475 7.16733C0.232604 14.1161 4.89164 19.2594 12.5271 20.9255C15.8224 21.6445 19.3266 21.2145 22.3941 19.7146C23.0115 19.4127 23.5957 19.0749 24.1441 18.7029C24.9085 18.1844 25.6034 17.5995 26.2215 16.9536C27.3264 15.7991 28.1295 14.5062 28.6087 13.111C28.8142 12.5124 28.971 11.8917 29.0744 11.266C29.1203 10.989 28.948 10.7123 28.6783 10.6298ZM1.63318 1.98755L2.71361 1.89253L3.00107 4.09432L2.56476 4.10498L1.91169 4.12096L1.63318 1.98755ZM23.5314 17.7872C20.5608 19.8018 16.5296 20.6956 12.7032 19.8607C5.61299 18.3135 1.28765 13.5775 1.13291 7.19179C1.12455 6.84879 1.28076 6.60094 1.41325 6.45347C1.72799 6.10287 1.92318 5.66841 1.98016 5.21018L3.18865 5.18062C3.38109 5.79383 3.76716 6.3339 4.29112 6.70756C4.43875 6.8129 4.57857 6.92988 4.7067 7.05532C4.75947 7.10696 4.80634 7.17256 4.8607 7.24848C4.89561 7.29729 4.93166 7.34768 4.97286 7.39924C5.16391 7.6383 5.3508 7.87352 5.5345 8.10486C8.15832 11.409 10.2307 14.0186 14.6737 14.9881C16.9004 15.474 19.0495 15.4727 21.0614 14.9844C22.8865 14.5414 24.5656 13.7073 26.0574 12.5031L26.0933 12.5206L26.2848 12.6142C25.5154 13.8093 24.5337 14.8047 23.3974 15.5753C20.9006 17.2686 17.662 17.879 14.3163 17.149C9.1068 16.0123 5.39617 13.2086 3.86781 9.25442C3.758 8.97021 3.44684 8.81982 3.17276 8.91842C2.8987 9.01695 2.7657 9.3273 2.87554 9.61156C4.54805 13.9387 8.5485 16.9938 14.1401 18.2138C16.8685 18.8091 19.5783 18.5923 21.9764 17.5867C22.7048 17.2813 23.3903 16.9101 24.0272 16.478C25.3342 15.5915 26.4353 14.4491 27.2776 13.0992L27.424 13.1707C26.6693 15.0172 25.2854 16.5976 23.5314 17.7872ZM27.7706 12.1544L27.5521 12.0477L26.9213 11.7396C27.0568 11.6079 27.1891 11.4733 27.3175 11.3361L27.9274 11.5226C27.8817 11.7348 27.8294 11.9456 27.7706 12.1544Z" fill="black"/>
</svg>
