<svg width="19" height="20" viewBox="0 0 19 20" fill="none" xmlns="http://www.w3.org/2000/svg">
<path d="M0.857985 0.702159C0.606895 0.995491 0.480159 1.37101 0.503614 1.75216V18.3422C0.480159 18.7233 0.606895 19.0988 0.857985 19.3922L0.911911 19.4447L10.4568 10.1597V9.94216L0.911911 0.649658L0.857985 0.702159Z" fill="url(#paint0_linear_14723_41)"/>
<path d="M13.6153 13.2572L10.4568 10.1597V9.94216L13.6153 6.83716L13.6846 6.87466L17.4672 8.96716C18.5457 9.55966 18.5457 10.5347 17.4672 11.1347L13.7 13.2197L13.6153 13.2572Z" fill="url(#paint1_linear_14723_41)"/>
<path d="M13.7078 13.2121L10.4568 10.0471L0.858032 19.3921C1.07787 19.5803 1.3583 19.6877 1.65088 19.6959C1.94346 19.7042 2.22979 19.6126 2.4604 19.4371L13.7155 13.2121" fill="url(#paint2_linear_14723_41)"/>
<path d="M13.7077 6.88216L2.45259 0.657155C2.22198 0.481666 1.93565 0.390119 1.64307 0.398336C1.35049 0.406552 1.07005 0.514017 0.85022 0.702156L10.4567 10.0472L13.7077 6.88216Z" fill="url(#paint3_linear_14723_41)"/>
<path opacity="0.2" d="M13.6154 13.1447L2.4527 19.3322C2.23029 19.494 1.96003 19.5815 1.68233 19.5815C1.40462 19.5815 1.13437 19.494 0.911958 19.3322L0.858032 19.3847L0.911958 19.4372C1.13387 19.6002 1.40431 19.6884 1.68233 19.6884C1.96035 19.6884 2.23079 19.6002 2.4527 19.4372L13.7078 13.2122L13.6154 13.1447Z" fill="black"/>
<path opacity="0.12" d="M0.857985 19.2871C0.606895 18.9938 0.480159 18.6183 0.503614 18.2371V18.3496C0.480159 18.7308 0.606895 19.1063 0.857985 19.3996L0.911911 19.3471L0.857985 19.2871ZM17.4672 11.0221L13.6153 13.1446L13.6846 13.2121L17.4672 11.1271C17.6818 11.029 17.866 10.8774 18.0013 10.6878C18.1365 10.4982 18.218 10.2772 18.2375 10.0471C18.1942 10.2561 18.1022 10.4527 17.9687 10.6217C17.8352 10.7908 17.6636 10.9277 17.4672 11.0221Z" fill="black"/>
<path opacity="0.25" d="M2.45247 0.761829L17.467 9.07183C17.6634 9.16621 17.835 9.30318 17.9685 9.4722C18.1021 9.64122 18.194 9.8378 18.2374 10.0468C18.2179 9.81676 18.1364 9.59576 18.0011 9.40614C17.8658 9.21652 17.6816 9.06499 17.467 8.96683L2.45247 0.656828C1.37395 0.0643277 0.495728 0.559329 0.495728 1.75933V1.87183C0.518839 0.664328 1.38165 0.169329 2.45247 0.761829Z" fill="white"/>
<defs>
<linearGradient id="paint0_linear_14723_41" x1="9.60939" y1="1.57966" x2="-2.97109" y2="14.5018" gradientUnits="userSpaceOnUse">
<stop stop-color="#00A0FF"/>
<stop offset="0.01" stop-color="#00A1FF"/>
<stop offset="0.26" stop-color="#00BEFF"/>
<stop offset="0.51" stop-color="#00D2FF"/>
<stop offset="0.76" stop-color="#00DFFF"/>
<stop offset="1" stop-color="#00E3FF"/>
</linearGradient>
<linearGradient id="paint1_linear_14723_41" x1="18.8769" y1="10.0472" x2="0.241681" y2="10.0472" gradientUnits="userSpaceOnUse">
<stop stop-color="#FFE000"/>
<stop offset="0.41" stop-color="#FFBD00"/>
<stop offset="0.78" stop-color="#FFA500"/>
<stop offset="1" stop-color="#FF9C00"/>
</linearGradient>
<linearGradient id="paint2_linear_14723_41" x1="11.9437" y1="11.7721" x2="-5.12041" y2="29.292" gradientUnits="userSpaceOnUse">
<stop stop-color="#FF3A44"/>
<stop offset="1" stop-color="#C31162"/>
</linearGradient>
<linearGradient id="paint3_linear_14723_41" x1="-1.56104" y1="-4.81784" x2="6.05622" y2="3.00631" gradientUnits="userSpaceOnUse">
<stop stop-color="#32A071"/>
<stop offset="0.07" stop-color="#2DA771"/>
<stop offset="0.48" stop-color="#15CF74"/>
<stop offset="0.8" stop-color="#06E775"/>
<stop offset="1" stop-color="#00F076"/>
</linearGradient>
</defs>
</svg>
