<svg width="70" height="71" viewBox="0 0 70 71" fill="none" xmlns="http://www.w3.org/2000/svg">
<g clip-path="url(#clip0_32_79)">
<path d="M52.7873 41.0607C52.7873 28.3379 42.5008 18.0242 29.8116 18.0242C17.1224 18.0242 6.83594 28.3379 6.83594 41.0607C6.83594 53.7836 17.1224 64.0973 29.8116 64.0973C42.5008 64.0973 52.7873 53.7836 52.7873 41.0607Z" fill="#89C8FD"/>
<path d="M29.8118 18.0242C28.6326 18.0242 27.4737 18.1134 26.3425 18.2853C37.3852 19.9623 45.8484 29.5203 45.8484 41.0607C45.8484 52.6012 37.3852 62.1592 26.3425 63.8362C27.4737 64.0081 28.6326 64.0973 29.8118 64.0973C42.501 64.0973 52.7875 53.7836 52.7875 41.0607C52.7875 28.3379 42.501 18.0242 29.8118 18.0242Z" fill="#60B6FF"/>
<path d="M26.8252 26.977C23.286 29.195 20.6312 32.7433 22.6221 36.7359C24.6131 40.728 29.0372 39.1754 33.1297 38.6211C37.2222 38.0667 34.1252 50.709 36.5584 53.814C38.9915 56.919 45.8488 50.709 45.1855 46.7163C44.2029 40.8054 43.8584 38.7316 51.8217 34.5179L51.8431 34.5099C49.1589 25.4208 41.0338 18.6767 31.2504 18.0706L31.2493 18.1053C31.2493 18.1053 30.3644 24.7591 26.8252 26.977Z" fill="#BAEB6C"/>
<path d="M44.2065 23.1072C44.2078 23.108 44.2091 23.1093 44.2104 23.1102C44.2091 23.1093 44.2078 23.1085 44.2065 23.1072Z" fill="#BAEB6C"/>
<path d="M47.0164 25.7947C47.0164 25.7951 47.0168 25.7955 47.0172 25.7955C47.0168 25.7951 47.0168 25.7951 47.0164 25.7947Z" fill="#BAEB6C"/>
<path d="M14.5483 51.4848C13.4855 49.864 16.4287 46.0513 17.092 43.168C17.7558 40.2846 13.7739 40.5062 12.5573 39.5081C11.3407 38.5099 9.6814 34.1851 8.46481 33.187L8.27042 33.0337C7.34329 35.5331 6.83594 38.2375 6.83594 41.0606C6.83594 48.6752 10.5209 55.4257 16.2001 59.6196L16.207 59.1368C16.207 59.1368 17.092 55.3664 14.5483 51.4848Z" fill="#BAEB6C"/>
<path d="M45.1856 46.7164C45.1808 46.6875 45.176 46.6592 45.1712 46.6304C44.7317 48.4061 44.0865 50.1007 43.2625 51.6868C44.5693 50.1445 45.4425 48.2641 45.1856 46.7164Z" fill="#BAEB6C"/>
<path d="M31.2502 18.0706L31.2492 18.1053C31.2492 18.1053 31.1755 18.6607 30.9854 19.5029C39.0421 22.5524 44.9408 30.011 45.7526 38.9447C46.7678 37.5562 48.6247 36.2093 51.8216 34.5179L51.843 34.5099C49.1588 25.4208 41.0336 18.6767 31.2502 18.0706Z" fill="#96D629"/>
<path d="M29.7802 70.7895C28.153 70.7895 26.5139 70.656 24.876 70.3852C17.0462 69.0923 10.1883 64.8278 5.56606 58.3775C0.943788 51.9271 -0.889632 44.0626 0.403856 36.2333C0.497316 35.6662 1.03458 35.2827 1.60014 35.3762C2.16731 35.4696 2.5513 36.0053 2.45731 36.5725C1.25514 43.8533 2.95986 51.1666 7.25849 57.1652C11.5571 63.1637 17.9338 67.1291 25.2156 68.3318C40.2478 70.8152 54.4943 60.6056 56.9771 45.5756C58.1793 38.2948 56.4746 30.9814 52.1759 24.9829C47.8778 18.9843 41.5007 15.019 34.2193 13.8163C33.6521 13.7228 33.2682 13.1871 33.3616 12.62C33.4556 12.0528 33.9923 11.6693 34.5579 11.7628C42.3883 13.0558 49.2461 17.3202 53.8678 23.7706C58.4901 30.2209 60.3235 38.0854 59.0306 45.9147C57.7376 53.744 53.4726 60.6013 47.0217 65.223C41.9199 68.8781 35.9342 70.7895 29.7802 70.7895Z" fill="#09A66D"/>
<path d="M23.4618 25.9303C12.3513 24.0451 5.45874 10.056 5.45874 10.056C5.45874 10.056 16.5805 -0.876733 27.691 1.00796C38.8016 2.89265 45.6941 16.8818 45.6941 16.8818C45.6941 16.8818 34.5724 27.815 23.4618 25.9303Z" fill="#49CB5C"/>
<path d="M27.6908 1.00789C25.569 0.647937 23.4477 0.756351 21.4028 1.16597C32.0493 3.55641 38.6166 16.8817 38.6166 16.8817C38.6166 16.8817 31.3363 24.0375 22.6718 25.7721C22.9329 25.8309 23.1957 25.8848 23.4616 25.9302C34.5722 27.8149 45.6939 16.8817 45.6939 16.8817C45.6939 16.8817 38.8014 2.89258 27.6908 1.00789Z" fill="#07B128"/>
<path d="M45.0661 15.7201L34.2007 13.8872L24.0514 0.818848C23.2418 0.866379 22.4396 0.969986 21.6482 1.11845L31.1672 13.3751L22.9742 11.9929L15.9834 2.94814C15.3276 3.244 14.6899 3.55803 14.0752 3.8838L19.9483 11.4824L6.40082 9.19661C5.79253 9.728 5.45874 10.0559 5.45874 10.0559C5.45874 10.0559 5.68198 10.5083 6.11029 11.2586L19.584 13.5316L12.1115 19.3095C12.5927 19.8051 13.0974 20.2949 13.625 20.7702L22.3772 14.0031L31.0508 15.4664L19.2545 24.593C19.9867 24.9348 20.7435 25.2306 21.5237 25.4688L33.8439 15.938L44.7162 17.772C45.3464 17.2224 45.6941 16.8817 45.6941 16.8817C45.6941 16.8817 45.4789 16.4459 45.0661 15.7201Z" fill="#09A66D"/>
<path d="M53.2508 12.3515C56.2313 5.29874 66.5584 2.92432 66.5584 2.92432C66.5584 2.92432 72.0533 11.9846 69.0728 19.0374C66.0927 26.0901 55.7651 28.4646 55.7651 28.4646C55.7651 28.4646 50.2702 19.4043 53.2508 12.3515Z" fill="#49CB5C"/>
<path d="M66.5587 2.92432C66.5587 2.92432 64.2104 3.46478 61.4301 4.79459C62.8566 7.81628 65.1178 13.9489 62.9671 19.0374C61.4082 22.7266 57.8386 25.1358 54.7886 26.5943C55.3392 27.7607 55.7659 28.4646 55.7659 28.4646C55.7659 28.4646 66.093 26.0901 69.0735 19.0374C72.0536 11.9846 66.5587 2.92432 66.5587 2.92432Z" fill="#07B128"/>
</g>
<defs>
<clipPath id="clip0_32_79">
<rect width="70" height="70" fill="white" transform="translate(0 0.789551)"/>
</clipPath>
</defs>
</svg>
