<svg width="17" height="20" viewBox="0 0 17 20" fill="none" xmlns="http://www.w3.org/2000/svg">
<path d="M13.5542 10.5318C13.5329 8.22864 15.4912 7.10814 15.5808 7.05598C14.4717 5.4817 12.7526 5.26661 12.1485 5.24946C10.7047 5.10153 9.30422 6.09055 8.56873 6.09055C7.81857 6.09055 6.68599 5.26375 5.46532 5.28804C3.89453 5.31163 2.42504 6.19702 1.61909 7.57192C-0.0441824 10.3753 1.1963 14.495 2.78984 16.761C3.58698 17.8708 4.51845 19.1099 5.73764 19.0663C6.93042 19.0185 7.37596 18.326 8.81536 18.326C10.2416 18.326 10.6599 19.0663 11.9034 19.0385C13.1835 19.0185 13.9894 17.9237 14.7587 16.8039C15.6799 15.5319 16.0498 14.2792 16.0645 14.2149C16.0344 14.2049 13.5784 13.2923 13.5542 10.5318Z" fill="white"/>
<path d="M11.2054 3.75881C11.8469 2.97775 12.2858 1.91513 12.164 0.836792C11.2355 0.87681 10.0743 1.46207 9.40557 2.22598C8.81395 2.89914 8.28546 4.00249 8.42199 5.0401C9.46503 5.11584 10.536 4.52772 11.2054 3.75881Z" fill="white"/>
</svg>
