<svg width="30" height="30" viewBox="0 0 30 30" fill="none" xmlns="http://www.w3.org/2000/svg">
<g clip-path="url(#clip0_1_9)">
<rect width="30" height="30" rx="6" fill="#1E4776"/>
<path fill-rule="evenodd" clip-rule="evenodd" d="M28.344 0H1.656C0.741 0 0 0.741 0 1.656V28.344C0 29.259 0.741 30 1.656 30H16.023V18.3825H12.114V13.8555H16.023V10.515C16.023 6.639 18.39 4.53 21.8475 4.53C23.5035 4.53 24.9255 4.653 25.341 4.7085V8.7585H22.944C21.063 8.7585 20.7 9.6525 20.7 10.9635V13.854H25.1835L24.5985 18.381H20.6985V30H28.344C29.259 30 30 29.259 30 28.344V1.656C30 0.741 29.259 0 28.344 0Z" fill="white"/>
</g>
<defs>
<clipPath id="clip0_1_9">
<rect width="30" height="30" rx="6" fill="white"/>
</clipPath>
</defs>
</svg>
