<svg width="30" height="30" viewBox="0 0 30 30" fill="none" xmlns="http://www.w3.org/2000/svg">
<g clip-path="url(#clip0_1_5)">
<path d="M8.77998 2.88752C9.71869 3.20551 10.6117 3.64508 11.4362 4.19502C12.6007 3.8974 13.7981 3.74789 15 3.75002C16.2412 3.75002 17.4387 3.90502 18.5612 4.19377C19.3854 3.64436 20.278 3.20521 21.2162 2.88752C22.0875 2.59127 23.3287 2.11127 24.0662 2.92752C24.5662 3.48252 24.6912 4.41252 24.78 5.12252C24.88 5.91502 24.9037 6.94752 24.6412 7.97252C25.645 9.26877 26.25 10.815 26.25 12.5C26.25 15.0525 24.8675 17.2688 22.8212 18.8038C21.8365 19.5332 20.7442 20.105 19.5837 20.4988C19.8512 21.1113 20 21.7888 20 22.5V26.25C20 26.5815 19.8683 26.8995 19.6339 27.1339C19.3994 27.3683 19.0815 27.5 18.75 27.5H11.25C10.9185 27.5 10.6005 27.3683 10.3661 27.1339C10.1317 26.8995 9.99998 26.5815 9.99998 26.25V25.0113C8.80623 25.1575 7.80498 25.0275 6.95373 24.6663C6.06373 24.2888 5.44373 23.7038 4.97748 23.1438C4.53498 22.6138 4.05248 21.4188 3.35498 21.1863C3.1992 21.1344 3.05516 21.0523 2.93109 20.9448C2.80702 20.8373 2.70534 20.7063 2.63187 20.5595C2.48348 20.263 2.45897 19.9196 2.56373 19.605C2.66849 19.2904 2.89394 19.0303 3.19048 18.8819C3.48702 18.7335 3.83037 18.709 4.14498 18.8138C4.97748 19.0913 5.51998 19.6913 5.89123 20.1738C6.49123 20.9488 6.97873 21.9613 7.92873 22.365C8.31998 22.5313 8.89373 22.64 9.79123 22.5175L9.99998 22.475C10.0024 21.7948 10.144 21.1222 10.4162 20.4988C9.25571 20.105 8.16349 19.5332 7.17873 18.8038C5.13248 17.2688 3.74998 15.0538 3.74998 12.5C3.74998 10.8175 4.35373 9.27252 5.35498 7.97752C5.09248 6.95252 5.11498 5.91752 5.21498 5.12377L5.22123 5.07627C5.31248 4.34877 5.41873 3.49252 5.92873 2.92752C6.66623 2.11127 7.90873 2.59252 8.77873 2.88877L8.77998 2.88752Z" fill="white"/>
</g>
<defs>
<clipPath id="clip0_1_5">
<rect width="30" height="30" fill="white"/>
</clipPath>
</defs>
</svg>
