<svg width="32" height="32" viewBox="0 0 32 32" fill="none" xmlns="http://www.w3.org/2000/svg">
<path d="M26.0701 3.99601C25.7491 4.01937 25.434 4.09468 25.1371 4.21901H25.1331C24.8481 4.33201 23.4931 4.90201 21.4331 5.76601L14.0511 8.87501C8.75412 11.105 3.54712 13.301 3.54712 13.301L3.60912 13.277C3.60912 13.277 3.25012 13.395 2.87512 13.652C2.64345 13.7994 2.44409 13.9923 2.28912 14.219C2.10512 14.489 1.95712 14.902 2.01212 15.329C2.10212 16.051 2.57012 16.484 2.90612 16.723C3.24612 16.965 3.57012 17.078 3.57012 17.078H3.57812L8.46112 18.723C8.68012 19.426 9.94912 23.598 10.2541 24.559C10.4341 25.133 10.6091 25.492 10.8281 25.766C10.9341 25.906 11.0581 26.023 11.2071 26.117C11.2846 26.1621 11.3672 26.1977 11.4531 26.223L11.4031 26.211C11.4181 26.215 11.4301 26.227 11.4411 26.231C11.4811 26.242 11.5081 26.246 11.5591 26.254C12.3321 26.488 12.9531 26.008 12.9531 26.008L12.9881 25.98L15.8711 23.355L20.7031 27.062L20.8131 27.109C21.8201 27.551 22.8401 27.305 23.3791 26.871C23.9221 26.434 24.1331 25.875 24.1331 25.875L24.1681 25.785L27.9021 6.65601C28.0081 6.18401 28.0351 5.74201 27.9181 5.31301C27.7974 4.87884 27.5189 4.50542 27.1371 4.26601C26.8165 4.07113 26.4448 3.97706 26.0701 3.99601ZM25.9691 6.04601C25.9651 6.10901 25.9771 6.10201 25.9491 6.22301V6.23401L22.2501 25.164C22.2341 25.191 22.2071 25.25 22.1331 25.309C22.0551 25.371 21.9931 25.41 21.6681 25.281L15.7581 20.75L12.1881 24.004L12.9381 19.214L22.5941 10.214C22.9921 9.84401 22.8591 9.76601 22.8591 9.76601C22.8871 9.31201 22.2581 9.63301 22.2581 9.63301L10.0821 17.176L10.0781 17.156L4.24212 15.191V15.187L4.22712 15.184C4.23735 15.1806 4.24737 15.1766 4.25712 15.172L4.28912 15.156L4.32012 15.145C4.32012 15.145 9.53112 12.949 14.8281 10.719C17.4801 9.60201 20.1521 8.47701 22.2071 7.60901C23.4259 7.09602 24.6459 6.58601 25.8671 6.07901C25.9491 6.04701 25.9101 6.04601 25.9691 6.04601Z" fill="white"/>
</svg>
