<svg width="30" height="30" viewBox="0 0 30 30" fill="none" xmlns="http://www.w3.org/2000/svg">
<g clip-path="url(#clip0_4_4)">
<rect width="30" height="30" rx="15" fill="#1E4776"/>
<path d="M10 9.53597C10.1394 9.44756 10.2985 9.39502 10.4632 9.38306C10.6278 9.3711 10.7928 9.40008 10.9435 9.46741C11.0942 9.53475 11.226 9.63835 11.3269 9.76896C11.4278 9.89958 11.4949 10.0531 11.522 10.216L11.802 11.888C11.834 12.0783 11.8102 12.2737 11.7335 12.4508C11.6569 12.6279 11.5306 12.779 11.37 12.886L10.368 13.554C10.1233 12.7247 9.99938 11.8646 10 11V9.53597ZM19 20C18.1354 20.0006 17.2752 19.8767 16.446 19.632L17.114 18.632C17.2207 18.471 17.3717 18.3443 17.5488 18.2673C17.7259 18.1903 17.9215 18.1662 18.112 18.198L19.784 18.478C19.9468 18.5051 20.1004 18.5722 20.231 18.6731C20.3616 18.774 20.4652 18.9057 20.5326 19.0564C20.5999 19.2071 20.6289 19.3722 20.6169 19.5368C20.6049 19.7015 20.5524 19.8606 20.464 20H19Z" fill="white"/>
<path fill-rule="evenodd" clip-rule="evenodd" d="M1.5427e-05 15C0.000164843 11.6477 1.12328 8.39204 3.1901 5.75266C5.25692 3.11328 8.14832 1.24233 11.4028 0.438395C14.6573 -0.365535 18.0873 -0.0560983 21.1454 1.31732C24.2035 2.69074 26.7133 5.04897 28.2744 8.01563C29.8355 10.9823 30.3578 14.3864 29.7579 17.6846C29.1581 20.9828 27.4707 23.9851 24.9651 26.2122C22.4595 28.4392 19.28 29.7628 15.9342 29.9716C12.5884 30.1803 9.26907 29.2623 6.50602 27.364L1.44602 29.894C1.25851 29.9869 1.04658 30.0187 0.840086 29.9848C0.63359 29.9509 0.44293 29.853 0.294962 29.7051C0.146993 29.5571 0.0491714 29.3664 0.015275 29.1599C-0.0186215 28.9534 0.0131154 28.7415 0.106015 28.554L2.63602 23.494C0.915105 20.9961 -0.00434348 18.0333 1.5427e-05 15ZM8.46002 8.16001L8.87201 7.88401C9.28879 7.60641 9.76843 7.43754 10.2672 7.39282C10.766 7.3481 11.268 7.42895 11.7275 7.62798C12.187 7.82702 12.5894 8.13791 12.8979 8.53232C13.2065 8.92673 13.4114 9.39211 13.494 9.88601L13.774 11.56C13.8691 12.1303 13.7973 12.7159 13.5674 13.2463C13.3375 13.7768 12.9592 14.2295 12.478 14.55L11.162 15.426C11.9685 16.8518 13.1471 18.0318 14.572 18.84L15.452 17.524C15.7724 17.0432 16.2248 16.6651 16.7548 16.4352C17.2849 16.2053 17.8701 16.1334 18.44 16.228L20.114 16.508C20.6079 16.5906 21.0733 16.7955 21.4677 17.1041C21.8621 17.4126 22.173 17.815 22.372 18.2745C22.5711 18.734 22.6519 19.2361 22.6072 19.7348C22.5625 20.2336 22.3936 20.7132 22.116 21.13L21.84 21.544C21.7494 21.6845 21.6251 21.8 21.4783 21.88C21.3316 21.96 21.1671 22.002 21 22.002H19C17.5553 22.002 16.1247 21.7174 14.79 21.1645C13.4553 20.6116 12.2426 19.8011 11.2211 18.7795C10.1997 17.7578 9.38945 16.545 8.83677 15.2101C8.28408 13.8753 7.99975 12.4447 8.00002 11V9.00001C8.00029 8.83269 8.04255 8.66812 8.12292 8.52136C8.20328 8.37461 8.31919 8.25036 8.46002 8.16001Z" fill="white"/>
</g>
<defs>
<clipPath id="clip0_4_4">
<rect width="30" height="30" rx="15" fill="white"/>
</clipPath>
</defs>
</svg>
