<svg width="57" height="56" viewBox="0 0 57 56" fill="none" xmlns="http://www.w3.org/2000/svg">
<g clip-path="url(#clip0_32_143)">
<path d="M42.4242 32.2169C42.4242 22.0386 34.195 13.7876 24.0436 13.7876C13.8923 13.7876 5.66309 22.0386 5.66309 32.2169C5.66309 42.3951 13.8923 50.6461 24.0436 50.6461C34.195 50.6461 42.4242 42.3951 42.4242 32.2169Z" fill="#89C8FD"/>
<path d="M24.0437 13.7876C23.1003 13.7876 22.1732 13.8589 21.2683 13.9965C30.1025 15.3381 36.873 22.9845 36.873 32.2169C36.873 41.4492 30.1025 49.0956 21.2683 50.4372C22.1732 50.5748 23.1003 50.6461 24.0437 50.6461C34.1951 50.6461 42.4243 42.3951 42.4243 32.2169C42.4243 22.0386 34.1951 13.7876 24.0437 13.7876Z" fill="#60B6FF"/>
<path d="M21.6544 20.9499C18.823 22.7242 16.6992 25.5629 18.292 28.757C19.8847 31.9506 23.4241 30.7086 26.698 30.2651C29.972 29.8217 27.4944 39.9354 29.441 42.4194C31.3875 44.9034 36.8733 39.9354 36.3427 36.7413C35.5566 32.0126 35.281 30.3536 41.6517 26.9826L41.6687 26.9762C39.5214 19.7049 33.0213 14.3096 25.1946 13.8247L25.1937 13.8525C25.1937 13.8525 24.4858 19.1755 21.6544 20.9499Z" fill="#BAEB6C"/>
<path d="M35.5596 17.854C35.5609 17.8549 35.5621 17.8561 35.5634 17.857C35.5621 17.8561 35.5609 17.8553 35.5596 17.854Z" fill="#BAEB6C"/>
<path d="M37.8074 20.0039C37.8074 20.0043 37.8078 20.0048 37.8082 20.0048C37.8078 20.0043 37.8078 20.0043 37.8074 20.0039Z" fill="#BAEB6C"/>
<path d="M11.8329 40.5563C10.9827 39.2596 13.3373 36.2095 13.8679 33.9028C14.399 31.5961 11.2134 31.7734 10.2402 30.9749C9.26691 30.1764 7.93945 26.7166 6.96619 25.918L6.81067 25.7954C6.06897 27.7949 5.66309 29.9585 5.66309 32.2169C5.66309 38.3086 8.61108 43.709 13.1544 47.0641L13.16 46.6779C13.16 46.6779 13.8679 43.6616 11.8329 40.5563Z" fill="#BAEB6C"/>
<path d="M36.3427 36.7414C36.3389 36.7183 36.335 36.6957 36.3312 36.6726C35.9796 38.0932 35.4634 39.4489 34.8042 40.7178C35.8497 39.4839 36.5482 37.9796 36.3427 36.7414Z" fill="#BAEB6C"/>
<path d="M25.1946 13.8247L25.1937 13.8525C25.1937 13.8525 25.1348 14.2968 24.9827 14.9706C31.4281 17.4102 36.147 23.3771 36.7964 30.524C37.6086 29.4132 39.0942 28.3357 41.6517 26.9826L41.6688 26.9762C39.5214 19.7049 33.0213 14.3096 25.1946 13.8247Z" fill="#96D629"/>
<path d="M24.0184 55.9999C22.7166 55.9999 21.4054 55.8931 20.095 55.6765C13.8312 54.6421 8.3449 51.2306 4.64708 46.0703C0.949269 40.91 -0.517467 34.6184 0.517323 28.355C0.592091 27.9012 1.0219 27.5945 1.47435 27.6692C1.92809 27.744 2.23528 28.1725 2.16008 28.6263C1.19835 34.4509 2.56212 40.3016 6.00103 45.1005C9.43993 49.8993 14.5412 53.0716 20.3667 54.0337C32.3924 56.0204 43.7897 47.8528 45.7759 35.8288C46.7377 30.0041 45.3739 24.1534 41.935 19.3546C38.4965 14.5558 33.3948 11.3835 27.5697 10.4213C27.116 10.3465 26.8088 9.91802 26.8835 9.46428C26.9587 9.01055 27.3881 8.70379 27.8406 8.77855C34.1048 9.81292 39.5911 13.2245 43.2885 18.3848C46.9863 23.545 48.4531 29.8367 47.4187 36.1001C46.3843 42.3635 42.9723 47.8494 37.8116 51.5467C33.7302 54.4708 28.9416 55.9999 24.0184 55.9999Z" fill="#09A66D"/>
<path d="M18.9637 20.1126C10.0753 18.6044 4.56128 7.41313 4.56128 7.41313C4.56128 7.41313 13.4587 -1.33303 22.3471 0.174724C31.2355 1.68248 36.7496 12.8738 36.7496 12.8738C36.7496 12.8738 27.8522 21.6203 18.9637 20.1126Z" fill="#49CB5C"/>
<path d="M22.347 0.174722C20.6496 -0.113242 18.9526 -0.0265113 17.3167 0.301187C25.8338 2.21354 31.0876 12.8738 31.0876 12.8738C31.0876 12.8738 25.2634 18.5984 18.3318 19.9861C18.5407 20.0331 18.7509 20.0763 18.9637 20.1126C27.8521 21.6203 36.7495 12.8738 36.7495 12.8738C36.7495 12.8738 31.2355 1.68247 22.347 0.174722Z" fill="#07B128"/>
<path d="M36.2471 11.9445L27.5548 10.4781L19.4354 0.0234375C18.7877 0.0614624 18.146 0.144348 17.5128 0.263123L25.1281 10.0684L18.5737 8.96271L12.981 1.72687C12.4564 1.96356 11.9462 2.21478 11.4545 2.4754L16.1529 8.55426L5.31494 6.72565C4.82831 7.15076 4.56128 7.41309 4.56128 7.41309C4.56128 7.41309 4.73987 7.77496 5.08252 8.37524L15.8615 10.1936L9.88348 14.816C10.2684 15.2125 10.6722 15.6042 11.0943 15.9845L18.096 10.5709L25.0349 11.7415L15.5979 19.0427C16.1837 19.3162 16.7891 19.5529 17.4133 19.7434L27.2694 12.1188L35.9673 13.5859C36.4714 13.1463 36.7496 12.8737 36.7496 12.8737C36.7496 12.8737 36.5774 12.5251 36.2471 11.9445Z" fill="#09A66D"/>
<path d="M42.795 9.24951C45.1795 3.6073 53.4411 1.70776 53.4411 1.70776C53.4411 1.70776 57.8371 8.95599 55.4526 14.5982C53.0686 20.2404 44.8065 22.14 44.8065 22.14C44.8065 22.14 40.4105 14.8917 42.795 9.24951Z" fill="#49CB5C"/>
<path d="M53.4412 1.70776C53.4412 1.70776 51.5626 2.14014 49.3384 3.20398C50.4796 5.62134 52.2885 10.5274 50.568 14.5982C49.3209 17.5496 46.4651 19.4769 44.0251 20.6437C44.4656 21.5768 44.807 22.14 44.807 22.14C44.807 22.14 53.0687 20.2404 55.4531 14.5982C57.8372 8.95599 53.4412 1.70776 53.4412 1.70776Z" fill="#07B128"/>
<path d="M56.1282 9.94464L49.775 12.6098L53.9462 2.63745C53.6476 2.04785 53.4412 1.70776 53.4412 1.70776C53.4412 1.70776 53.0482 1.79834 52.4086 1.99829L48.0977 12.3043L45.4244 5.72687C44.9715 6.12634 44.5443 6.56042 44.1567 7.03082L47.1859 14.4841L44.3405 21.2867C44.6182 21.8289 44.8066 22.14 44.8066 22.14C44.8066 22.14 45.2338 22.0417 45.9208 21.8238L48.859 14.7999L56.1256 11.7519C56.1739 11.1482 56.1713 10.5428 56.1282 9.94464Z" fill="#09A66D"/>
</g>
<defs>
<clipPath id="clip0_32_143">
<rect width="56" height="56" fill="white" transform="translate(0.194336)"/>
</clipPath>
</defs>
</svg>
